# xmcd
#
# Track frame offsets: 
#        150
#        34545
#        59572
#        70026
#        98270
#        129585
#        144904
#        165270
#        177282
#
# Disc length: 2697 seconds
#
# Revision: 5
# Processed by: cddbd v1.5.2PL0 Copyright (c) Steve Scherf et al.
# Submitted via: ExactAudioCopyFreeDBPlugin 1.0
#
DISCID=690a8709
DTITLE=King Curtis - King Curtis Live at Fillmore West
DYEAR=1999
DGENRE=Rhythm and Blues
TTITLE0=Memphis Soul Stew
TTITLE1=A Whiter Shade of Pale
TTITLE2=Whole Lotta Love
TTITLE3=I Stand Accused
TTITLE4=Changes
TTITLE5=Ode to Billie Joe
TTITLE6=Mr. Bojangles
TTITLE7=Signed, Sealed Delivered I'm Yours
TTITLE8=Soul Serenade
EXTD=YEAR: 1971
EXTT0=
EXTT1=
EXTT2=
EXTT3=
EXTT4=
EXTT5=
EXTT6=
EXTT7=
EXTT8=
PLAYORDER=
